<?xml version="1.0" encoding="UTF-8"?>
<svg version="1.1" xmlns="http://www.w3.org/2000/svg" width="512" height="512">
<path d="M0 0 C0.75886507 -0.00205263 1.51773014 -0.00410527 2.29959112 -0.0062201 C4.851067 -0.01188978 7.40248889 -0.01043289 9.95396996 -0.00901413 C11.79835681 -0.01159779 13.6427431 -0.01461095 15.48712862 -0.01801753 C20.56250299 -0.02609078 25.63786322 -0.02787728 30.71324325 -0.028615 C36.18445004 -0.03046499 41.65564949 -0.03801208 47.12685204 -0.04475021 C59.09385404 -0.05833652 71.06085269 -0.06435876 83.02786112 -0.06876087 C90.4994104 -0.07152288 97.97095838 -0.07576016 105.44250679 -0.08026505 C126.12682638 -0.09245826 146.81114502 -0.10279274 167.49546814 -0.10614014 C168.83288941 -0.10636177 170.17031067 -0.10658355 171.50773194 -0.10680549 C172.84836441 -0.10702613 174.18899688 -0.10724661 175.52962935 -0.10746694 C178.21912106 -0.10790949 180.90861277 -0.1083566 183.59810448 -0.10880661 C184.26494122 -0.108916 184.93177797 -0.10902539 185.61882189 -0.1091381 C207.23734515 -0.11276812 228.85583488 -0.12868624 250.4743453 -0.15199697 C273.33640347 -0.17660347 296.19844713 -0.19030664 319.06051958 -0.19150805 C331.52067422 -0.19242489 343.98078495 -0.19817933 356.44092751 -0.21632767 C367.05130867 -0.23172726 377.66163234 -0.23684994 388.27202256 -0.22858956 C393.68497562 -0.22468255 399.0978129 -0.2256153 404.51075172 -0.23964691 C409.46909532 -0.25238248 414.42723609 -0.25119122 419.38557939 -0.2390562 C421.17632906 -0.23709862 422.96709308 -0.24018046 424.75782259 -0.24890056 C439.15855768 -0.31456856 451.50810876 0.60882439 462.39156151 11.01814651 C468.67385358 17.80729018 472.53472134 24.95878327 472.55312634 34.29651451 C472.55758418 35.34681378 472.56204202 36.39711306 472.56663495 37.47923958 C472.56635841 39.20829389 472.56635841 39.20829389 472.56607628 40.97227859 C472.56975297 42.1977899 472.57342965 43.4233012 472.57721776 44.68594921 C472.58633781 48.08949289 472.5909528 51.49298838 472.59360707 54.89653969 C472.59751334 58.56677752 472.60709146 62.23700144 472.61581993 65.90723038 C472.63557529 74.77183225 472.64564941 83.63643525 472.65454772 92.50105363 C472.65893217 96.67681503 472.66429858 100.85257517 472.66953659 105.02833557 C472.686548 118.91169153 472.70104181 132.7950467 472.70828533 146.67841148 C472.71019519 150.2805888 472.71211553 153.8827661 472.71407127 157.48494339 C472.71455501 158.38023333 472.71503875 159.27552326 472.71553715 160.1979432 C472.72383614 174.69862487 472.74917121 189.19922401 472.78165195 203.69986965 C472.81473587 218.59134964 472.8327353 233.48278772 472.83592957 248.37430465 C472.83809344 256.73372699 472.84682406 265.09302898 472.87239075 273.45241547 C472.89411597 280.57217502 472.90213923 287.69178499 472.89242397 294.81157394 C472.88788449 298.44223529 472.8897445 302.07258813 472.90918541 305.70320702 C472.93011048 309.64515701 472.91981485 313.58668396 472.90665245 317.52867508 C472.92310632 319.23765289 472.92310632 319.23765289 472.93989259 320.98115551 C472.85063399 332.06914277 469.34785487 341.24628451 461.41890526 349.13142776 C453.302912 355.39472743 445.82371956 358.44874602 435.49801064 358.38869667 C434.72670763 358.39220275 433.95540463 358.39570882 433.16072881 358.39932114 C430.57892959 358.40861718 427.99735682 358.40371648 425.41554832 358.3988533 C423.54468533 358.40259047 421.67382389 358.40719225 419.80296493 358.41258395 C414.66368471 358.42482117 409.52446955 358.42455262 404.38517809 358.4221952 C398.84174311 358.42178721 393.29832904 358.43282441 387.75490379 358.44231033 C376.89486559 358.45892527 366.03484909 358.4644201 355.17479923 358.46553509 C346.34734874 358.46648533 337.51990542 358.47059442 328.6924572 358.47693634 C307.73869575 358.49168388 286.78493817 358.50398593 265.83117104 358.50293922 C265.16119199 358.50290807 264.49121295 358.50287691 263.80093151 358.50284481 C260.40528151 358.5026786 257.00963151 358.50248051 253.61398152 358.50227539 C252.93960646 358.5022355 252.2652314 358.50219561 251.57042073 358.50215451 C250.20667004 358.50207364 248.84291935 358.50199004 247.47916866 358.50190373 C226.26406647 358.50067837 205.04902822 358.51568919 183.83394432 358.54304886 C159.9926734 358.57378276 136.15144414 358.59095523 112.310148 358.58912241 C99.68904513 358.58845833 87.06801437 358.59395866 74.44692802 358.61547852 C63.7011676 358.63368334 52.95551198 358.63804333 42.20974281 358.62445967 C36.72788673 358.61792656 31.24623175 358.61782541 25.76439476 358.63516617 C20.7431611 358.65088643 15.72228818 358.64804372 10.70106336 358.6305979 C8.88749374 358.62752574 7.07389727 358.63116855 5.26035932 358.64231806 C-7.48173153 358.7154485 -18.33765409 357.72773649 -28.50687599 349.25642776 C-37.58138329 339.95975738 -39.88312968 330.59542799 -39.84179115 318.04333878 C-39.84752947 316.2014502 -39.84752947 316.2014502 -39.85338372 314.32235175 C-39.86191065 310.92133546 -39.86148248 307.52053561 -39.85720313 304.11952555 C-39.85473548 300.44865637 -39.86375061 296.77781255 -39.87124062 293.10695267 C-39.88398908 285.91778987 -39.88578108 278.72866441 -39.88344035 271.53949221 C-39.88165701 265.6949329 -39.88340719 259.85038491 -39.88766479 254.00582695 C-39.88825998 253.17385466 -39.88885517 252.34188237 -39.8894684 251.48469881 C-39.89068016 249.79450259 -39.89189429 248.10430637 -39.89311077 246.41411016 C-39.90398712 230.56331148 -39.90182352 214.71253407 -39.89572593 198.86173419 C-39.89055807 184.36698331 -39.90180857 169.87229965 -39.92082415 155.37756207 C-39.94020587 140.48940892 -39.94845787 125.60128756 -39.9447009 110.71312171 C-39.94278918 102.35658513 -39.94527342 94.00010576 -39.95941544 85.64357948 C-39.97133454 78.52860722 -39.97272828 71.41372737 -39.96062527 64.29875382 C-39.95473996 60.67028463 -39.95362735 57.04198443 -39.96562767 53.41352654 C-39.97849931 49.47575672 -39.96801348 45.53824239 -39.95531654 41.60046768 C-39.96269083 40.45960054 -39.97006511 39.31873339 -39.97766286 38.14329451 C-39.89829505 26.43922674 -36.7831351 18.66691116 -28.76468849 10.21736526 C-20.59094239 2.45643463 -11.04700059 -0.0278267 0 0 Z M-15.95609474 27.38142776 C-20.08102194 34.36207379 -19.86954328 41.90705261 -19.84179115 49.77667618 C-19.8456167 50.9328068 -19.84944225 52.08893743 -19.85338372 53.28010231 C-19.86188784 56.4713454 -19.86149121 59.66244052 -19.85720313 62.85368741 C-19.85472933 66.30229778 -19.86375811 69.75088146 -19.87124062 73.19948196 C-19.88397115 79.94854453 -19.8857834 86.69756728 -19.88344035 93.44663983 C-19.88165533 98.93360003 -19.88341078 104.42054818 -19.88766479 109.90750694 C-19.88825998 110.68925175 -19.88885517 111.47099655 -19.8894684 112.2764306 C-19.89068018 113.86467774 -19.89189432 115.45292489 -19.89311077 117.04117204 C-19.9039798 131.92579477 -19.90182674 146.81039483 -19.89572593 161.69501884 C-19.89055632 175.30373018 -19.90181449 188.91236995 -19.92082415 202.52106714 C-19.94020815 216.50527409 -19.94845763 230.4894472 -19.9447009 244.47366768 C-19.94278984 252.32044682 -19.94526723 260.16716502 -19.95941544 268.01393318 C-19.97133731 274.6933451 -19.97272504 281.37265857 -19.96062527 288.05207186 C-19.95474245 291.45777956 -19.95362046 294.86330727 -19.96562767 298.26900291 C-19.97607721 301.96590055 -19.96800811 305.66231542 -19.95531654 309.35919571 C-19.96269083 310.42866155 -19.97006511 311.49812738 -19.97766286 312.60000128 C-19.9271048 319.60706715 -19.40267764 326.66257752 -14.82718849 332.28767776 C-14.23035255 332.73111526 -13.63351662 333.17455276 -13.01859474 333.63142776 C-12.11947365 334.32752151 -12.11947365 334.32752151 -11.20218849 335.03767776 C-7.627195 337.44972157 -4.53771033 337.27436688 -0.35517693 337.26564884 C0.78017536 337.26917719 0.78017536 337.26917719 1.93846405 337.27277681 C4.50127416 337.2794891 7.06403384 337.27900792 9.62685204 337.27859879 C11.47221334 337.28189602 13.31757393 337.28562129 15.16293359 337.28974026 C20.25473736 337.2997843 25.34652934 337.30348091 30.43834162 337.30612957 C35.92177681 337.31002551 41.40520261 337.3196043 46.88863182 337.32834244 C60.14118478 337.34812671 73.39373854 337.35817541 86.64630258 337.36707023 C92.88172479 337.3714498 99.11714614 337.37681745 105.35256767 337.3820591 C126.07108824 337.39907312 146.78960835 337.41359336 167.50813484 337.42080784 C168.8484482 337.4212826 170.18876156 337.42175849 171.52907492 337.4222355 C172.19376085 337.42247188 172.85844678 337.42270825 173.54327471 337.42295179 C176.91099792 337.42415301 180.27872112 337.42536845 183.64644432 337.42659378 C184.31478352 337.42683393 184.98312272 337.42707408 185.67171462 337.42732151 C207.34524667 337.43521601 229.01872402 337.45865038 250.69223217 337.49114972 C273.59780321 337.52543394 296.50335216 337.54515652 319.40895104 337.54845208 C331.89862945 337.55062037 344.38822747 337.55941566 356.877882 337.58491325 C367.51227807 337.60657273 378.14657423 337.61469414 388.78098986 337.60494647 C394.20953947 337.600388 399.63788275 337.6023776 405.06640434 337.62170792 C410.03329192 337.63924212 414.99982116 337.63842151 419.96671203 337.62281062 C421.76621305 337.62041967 423.56573826 337.6248345 425.36520216 337.63663927 C427.80711469 337.65166987 430.24774296 337.64214798 432.68962288 337.62641239 C433.74324235 337.6417457 433.74324235 337.6417457 434.81814706 337.65738878 C440.95430838 337.57079497 444.4918744 335.11198726 448.66890526 330.81892776 C452.98916747 324.18423937 452.7046729 317.26418704 452.67287254 309.59970474 C452.67599252 308.44372298 452.67911251 307.28774121 452.68232703 306.0967297 C452.68890885 302.90129247 452.68656053 299.70600803 452.6803546 296.5105747 C452.67582139 293.05924325 452.6828182 289.60793215 452.68831444 286.15660477 C452.6972011 279.40038367 452.69528959 272.64420705 452.68948916 265.88798422 C452.68496944 260.39574821 452.68436111 254.90352465 452.68653679 249.41128731 C452.68699649 248.23803378 452.68699649 248.23803378 452.68746547 247.04107816 C452.68810494 245.45202375 452.68875336 243.86296933 452.68941066 242.27391493 C452.69511192 227.37787906 452.68855945 212.48186782 452.67780992 197.58583599 C452.66887635 184.81090047 452.67042525 172.0360013 452.67964745 159.26106644 C452.6903567 144.41929477 452.69456077 129.57754468 452.68842292 114.73576969 C452.68778583 113.15230779 452.68715709 111.56884589 452.68653679 109.98538399 C452.68622824 109.20633139 452.68591969 108.4272788 452.68560179 107.62461855 C452.68387668 102.14099294 452.68678601 96.65738104 452.6914959 91.17375755 C452.69711208 84.48808609 452.69557285 77.80246159 452.68493441 71.11679549 C452.67968735 67.70720585 452.67760442 64.29769441 452.68423271 60.88810539 C452.68969636 57.1887037 452.68284369 53.4895221 452.67287254 49.79013443 C452.67733399 48.71707363 452.68179543 47.64401283 452.68639207 46.53843504 C452.64844678 39.28176906 452.33638298 33.03503689 448.23140526 26.81892776 C442.95540345 21.77741493 437.76064464 20.68180276 430.64580441 20.75111103 C429.89048635 20.74645111 429.1351683 20.74179119 428.35696182 20.73699006 C425.82946295 20.72505224 423.30250285 20.73443065 420.77499962 20.74374771 C418.94324509 20.73957427 417.11149314 20.73409669 415.279746 20.7274279 C410.24865609 20.71295608 405.21772977 20.71722347 400.18663085 20.72459471 C394.75981325 20.72931975 389.33303139 20.71682244 383.9062252 20.7065773 C373.27578376 20.68937115 362.64540138 20.68855304 352.01494963 20.6937902 C343.37578088 20.69782963 334.73662961 20.69639106 326.0974617 20.69104195 C324.86845952 20.69029352 323.63945734 20.6895451 322.37321268 20.688774 C319.87660126 20.68724254 317.37998985 20.6857042 314.88337844 20.68415903 C292.13255653 20.67081906 269.3817655 20.67515668 246.63094423 20.68636958 C225.86565378 20.69647249 205.10044419 20.68811556 184.33516502 20.66487503 C161.00261635 20.63882752 137.67011672 20.6260037 114.33755296 20.63306278 C101.98426932 20.63655859 89.63105208 20.63429902 77.27777863 20.61681175 C66.76212614 20.6021106 56.24658682 20.60142707 45.73093659 20.61888266 C40.36489489 20.62741205 34.99905552 20.62949485 29.63302422 20.61423111 C24.72111281 20.60043196 19.80957803 20.60508566 14.89768868 20.62447035 C13.12051408 20.62824533 11.34330966 20.62526542 9.56616152 20.61485869 C-4.31544139 20.38209913 -4.31544139 20.38209913 -15.95609474 27.38142776 Z " fill="#000000" transform="translate(39.58109474182129,38.86857223510742)"/>
<path d="M0 0 C2.14710408 1.9835152 3.71290519 3.65030171 5.4375 5.9375 C5.90502686 6.52305664 6.37255371 7.10861328 6.85424805 7.71191406 C7.80548194 8.90512425 8.74905054 10.10448851 9.68457031 11.31005859 C11.51482202 13.66139533 13.41441733 15.95324941 15.3125 18.25 C16.03308594 19.13429687 16.75367188 20.01859375 17.49609375 20.9296875 C25.328967 30.53442755 33.20448754 40.10066361 41.23779297 49.53857422 C44.54293211 53.43194724 47.73529282 57.40356635 50.90625 61.40625 C53.38811041 64.48079349 55.93848513 67.49179044 58.5 70.5 C62.39075616 75.06925314 66.17928921 79.70172572 69.90625 84.40625 C72.38811041 87.48079349 74.93848513 90.49179044 77.5 93.5 C81.39144128 98.07005775 85.18230796 102.70181149 88.90625 107.41015625 C90.91973919 109.90072216 92.98322893 112.33712364 95.0690918 114.7668457 C110.40671782 132.67426335 110.40671782 132.67426335 110.8125 138.3125 C109.77167248 143.03625565 108.52258403 144.71759216 105 148 C102.03624556 149.03426559 99.27113574 149.12603578 96.14891148 149.12863445 C95.16868002 149.1318589 94.18844855 149.13508335 93.17851311 149.1384055 C92.10410955 149.1368569 91.02970599 149.1353083 89.92274475 149.13371277 C88.77946022 149.13597833 87.63617569 149.13824388 86.45824617 149.14057809 C83.28448512 149.14581836 80.11075964 149.14656211 76.93699563 149.14538372 C73.51430296 149.1451798 70.09161878 149.1506976 66.66893005 149.15544128 C59.96344957 149.16374995 53.25797788 149.16649621 46.55249269 149.16705366 C41.10306776 149.16752867 35.65364573 149.16958265 30.20422173 149.17275429 C14.75867321 149.18156104 -0.68686836 149.18617357 -16.1324194 149.18542381 C-16.96520293 149.18538386 -17.79798646 149.1853439 -18.65600586 149.18530273 C-19.90670373 149.18524141 -19.90670373 149.18524141 -21.18266822 149.18517885 C-34.70055487 149.18477226 -48.21841369 149.19434511 -61.7362923 149.2084411 C-75.61186733 149.2227961 -89.48742877 149.22971179 -103.36301142 149.22884732 C-111.15493703 149.22851508 -118.94683344 149.23127437 -126.73875237 149.24202538 C-133.37187703 149.2511188 -140.00495926 149.25331514 -146.63808744 149.24651595 C-150.02300334 149.243245 -153.40777115 149.24429599 -156.79269028 149.2518692 C-160.46045411 149.2595454 -164.12800218 149.25497327 -167.79576111 149.24723816 C-168.86793395 149.25238172 -169.94010678 149.25752529 -171.0447697 149.26282471 C-172.02760891 149.25822592 -173.01044812 149.25362712 -174.02307034 149.24888897 C-174.86957698 149.24910634 -175.71608363 149.24932371 -176.58824199 149.24954766 C-180.63809007 148.83050474 -183.32461767 147.6206216 -186.3125 144.875 C-188.07073746 141.87948433 -188.76889417 139.65470577 -188.56640625 136.16015625 C-187.3733082 131.60992713 -184.09641317 128.41158379 -181 125 C-180.21625 124.13246094 -179.4325 123.26492188 -178.625 122.37109375 C-176.93314292 120.51269449 -175.23503108 118.65997346 -173.53125 116.8125 C-171.13313395 114.14792662 -168.86796826 111.42058363 -166.625 108.625 C-162.75781137 103.8285929 -158.65019284 99.3295854 -154.44189453 94.83642578 C-151.32460664 91.48918215 -148.36433518 88.07004094 -145.5 84.5 C-141.68005989 79.73891522 -137.61061181 75.28726975 -133.44140625 70.8359375 C-130.32431446 67.48883131 -127.36418887 64.06985859 -124.5 60.5 C-121.00053029 56.14653126 -117.34236103 51.98413294 -113.5625 47.875 C-113.04171875 47.30587891 -112.5209375 46.73675781 -111.984375 46.15039062 C-108.6797802 42.58857802 -107.24516981 41.17174756 -102.375 40.5 C-97.7377879 40.6165547 -95.47420099 42.38144283 -92.20703125 45.5390625 C-87.95079038 50.2849594 -84.10249124 55.34399524 -80.23486328 60.40722656 C-77.93622076 63.37210276 -75.47905001 66.18594323 -73 69 C-69.23618138 67.49278852 -67.41536518 65.35083069 -64.9375 62.1875 C-64.15375 61.20265625 -63.37 60.2178125 -62.5625 59.203125 C-62.14742188 58.68041016 -61.73234375 58.15769531 -61.3046875 57.61914062 C-59.07003368 54.8458951 -56.75017248 52.14569272 -54.4375 49.4375 C-50.56786512 44.88933193 -46.80218688 40.27489164 -43.09375 35.59375 C-40.15082617 31.94803839 -37.10967767 28.3887728 -34.07080078 24.82299805 C-31.27489438 21.53361076 -28.54756655 18.20378464 -25.875 14.8125 C-23.0872659 11.3149527 -20.24526094 7.87726507 -17.3125 4.5 C-16.60738281 3.6853125 -15.90226563 2.870625 -15.17578125 2.03125 C-10.29531402 -2.52502102 -5.9348048 -2.69249116 0 0 Z M-8 26 C-9.41706502 27.54888502 -10.75809496 29.16761534 -12.0625 30.8125 C-12.87074219 31.82183594 -13.67898438 32.83117187 -14.51171875 33.87109375 C-15.33285156 34.90363281 -16.15398437 35.93617188 -17 37 C-22.25136058 43.47822713 -27.58171719 49.88155889 -32.98388672 56.23388672 C-36.37221574 60.22943466 -39.6530567 64.2997601 -42.90625 68.40625 C-45.85083084 72.05401433 -48.89451533 75.6145398 -51.93359375 79.18359375 C-54.67774533 82.41424312 -57.36747809 85.67698054 -60 89 C-63.09073591 92.90142074 -66.27379698 96.71090178 -69.5 100.5 C-73.43864305 105.12866367 -77.30094246 109.8048911 -81.07421875 114.5703125 C-82.46315241 116.3226791 -83.86295998 118.06644624 -85.26953125 119.8046875 C-86.37361328 121.16980469 -86.37361328 121.16980469 -87.5 122.5625 C-88.1703125 123.38878906 -88.840625 124.21507812 -89.53125 125.06640625 C-91.10081322 126.72802447 -91.10081322 126.72802447 -91 128 C-35.56 128 19.88 128 77 128 C74.39841053 123.64647667 74.39841053 123.64647667 71.36328125 119.80078125 C70.8727124 119.23673584 70.38214355 118.67269043 69.87670898 118.09155273 C69.36052002 117.50446533 68.84433105 116.91737793 68.3125 116.3125 C64.11245455 111.47782019 60.02865652 106.58513892 56.05859375 101.55859375 C53.5918838 98.4927588 51.05127586 95.49550413 48.5 92.5 C44.6091876 87.93079634 40.82070887 83.29827185 37.09375 78.59375 C34.61188959 75.51920651 32.06151487 72.50820956 29.5 69.5 C25.60924384 64.93074686 21.82071079 60.29827428 18.09375 55.59375 C15.61188709 52.51920341 13.06143143 49.50828416 10.5 46.5 C-0.48938224 33.58747587 -0.48938224 33.58747587 -4.59375 27.72265625 C-5.28984375 26.86994141 -5.28984375 26.86994141 -6 26 C-6.66 26 -7.32 26 -8 26 Z M-103 68 C-104.84493657 70.08201244 -106.6485229 72.18313137 -108.4375 74.3125 C-112.2788332 78.84631648 -116.15998152 83.31802241 -120.1875 87.6875 C-123.37736844 91.16136309 -126.42048894 94.69910025 -129.375 98.375 C-132.78182396 102.60187363 -136.35384338 106.60358727 -140.0625 110.5625 C-148.89677174 118.59594668 -148.89677174 118.59594668 -154 128 C-149.18063472 128.24911232 -144.3650862 128.42948743 -139.54077148 128.54931641 C-137.90403933 128.59930035 -136.26774686 128.66732082 -134.63256836 128.75439453 C-124.8529689 129.46267766 -124.8529689 129.46267766 -116.04736328 125.96459961 C-113.74484302 123.42914608 -111.85844558 120.87265419 -110 118 C-109.0690786 116.82003165 -108.12802121 115.64790377 -107.171875 114.48828125 C-106.37265625 113.44027344 -105.5734375 112.39226562 -104.75 111.3125 C-98.80701617 103.6070693 -92.43053968 96.29953153 -86 89 C-87.33064774 85.13025912 -88.96846467 82.61137707 -91.75 79.625 C-94.37301817 76.7726469 -96.94894472 73.90809989 -99.4375 70.9375 C-100.7059375 69.4834375 -100.7059375 69.4834375 -102 68 C-102.33 68 -102.66 68 -103 68 Z " fill="#000000" transform="translate(295,181)"/>
<path d="M0 0 C1.5630016 1.20192046 3.10656264 2.42975011 4.625 3.6875 C5.26050781 4.18765625 5.89601563 4.6878125 6.55078125 5.203125 C15.14205889 12.74668585 19.91890419 25.08359184 20.8359375 36.2578125 C21.20713871 46.28024511 18.88380678 56.11492457 13.625 64.6875 C13.22796875 65.34234375 12.8309375 65.9971875 12.421875 66.671875 C5.84243016 76.42760355 -4.98966379 83.12609309 -16.375 85.6875 C-30.03149399 87.34823081 -42.44650315 85.85675886 -53.875 77.6875 C-64.06919179 69.28475614 -69.91784375 60.51612502 -73.125 47.6875 C-74.34254033 33.07701605 -71.86998889 19.79060911 -62.3359375 8.2109375 C-46.09197907 -8.95140727 -20.13498586 -13.46375561 0 0 Z M-47.96875 24.51171875 C-51.56380334 30.07406518 -53.17120069 36.09040861 -52.375 42.6875 C-50.0512651 52.0101031 -46.00040673 58.07549864 -37.8125 63.125 C-31.46562746 65.98294846 -23.57564376 65.82700048 -16.94140625 64.02734375 C-9.7545376 60.79115144 -4.78823571 55.47938186 -1.9375 48.1875 C0.49713243 40.48482671 0.23213989 33.93809327 -3.375 26.6875 C-7.74382603 20.29834832 -12.72582654 15.51848325 -20.375 13.6875 C-31.76228555 12.08495914 -40.76981128 15.49606673 -47.96875 24.51171875 Z " fill="#000000" transform="translate(239.375,114.3125)"/>
<path d="M0 0 C7.58937838 4.27528307 11.69351831 9.8854683 14.09375 18.21484375 C15.54485086 25.28896044 14.88568683 32.04257008 11.5625 38.5 C6.40016192 45.86968265 0.42797868 50.65516051 -8.4375 52.5 C-17.61671421 53.4126561 -25.42859949 51.06322616 -32.64453125 45.31640625 C-38.1213614 39.76798354 -40.57965753 32.97830196 -40.6875 25.3125 C-40.5776864 16.30778461 -38.54162908 10.88787516 -32.41015625 4.26171875 C-23.46080507 -3.73067211 -10.73074348 -4.94955543 0 0 Z M-19.4375 22.5 C-20.1875 25 -20.1875 25 -19.4375 27.5 C-17.34920257 30.00397498 -17.34920257 30.00397498 -14.4375 31.5 C-11.17765326 31.5 -9.94057043 30.9695324 -7.5625 28.75 C-6.22584787 26.53631565 -6.22584787 26.53631565 -6.5625 23.9375 C-7.51512554 21.28375743 -8.10690198 20.08147723 -10.4375 18.5 C-14.87565895 17.70340737 -16.81913641 18.91187212 -19.4375 22.5 Z " fill="#000000" transform="translate(349.4375,420.5)"/>
<path d="M0 0 C7.40360944 3.87161227 13.10794703 9.05309574 15.70703125 17.19921875 C17.73883544 27.77599385 15.82044851 35.88461936 9.9375 44.625 C3.94830513 50.48110165 -2.74886091 53.43886358 -11.125 53.625 C-19.80364133 53.45257666 -25.65152461 50.51216778 -31.92578125 44.56640625 C-37.21024274 38.62535837 -39.25988707 31.79582044 -39.15625 23.9453125 C-38.46757046 17.65154671 -36.03693666 10.36903742 -31.59375 5.72265625 C-22.24991347 -1.60376103 -11.30494345 -4.52965476 0 0 Z M-16.25 21.5625 C-18.09387145 24.21244987 -18.09387145 24.21244987 -17.875 27 C-16.64779327 29.91461599 -15.70355344 30.96072328 -12.875 32.375 C-10.0748031 32.23840503 -8.39422128 31.68653277 -6 30.25 C-4.55655085 28.22976062 -4.55655085 28.22976062 -5 24.8125 C-5.53133933 21.12057606 -5.53133933 21.12057606 -8.875 19.375 C-12.53061758 18.71886351 -13.47566492 19.00719138 -16.25 21.5625 Z " fill="#000000" transform="translate(186.875,419.625)"/>
<path d="M0 0 C6.7078881 4.9697597 10.42470989 11.76313756 11.875 19.9375 C12.57292924 28.95689326 9.69175423 36.1077517 4 43 C-2.49651511 49.17168936 -9.74848652 51.40892449 -18.53515625 51.27734375 C-26.03863892 50.43305331 -33.13621773 46.77960895 -38 41 C-43.3319417 32.87052006 -44.89828015 25.57262574 -43.125 16.0625 C-40.94978743 8.35575138 -36.36914277 2.75570116 -29.609375 -1.5078125 C-19.95981218 -5.95906245 -9.13503934 -5.35120155 0 0 Z M-20.875 18.0625 C-22.66235303 21.14071911 -22.43386742 23.52906068 -22 27 C-20.5 29.16666667 -20.5 29.16666667 -18 30 C-14.32706204 29.77962372 -12.63033454 29.63033454 -10 27 C-9.5359554 22.33771115 -9.5359554 22.33771115 -11.125 18.0625 C-14.41527775 16.19800927 -17.58472225 16.19800927 -20.875 18.0625 Z " fill="#000000" transform="translate(272,422)"/>
<path d="M0 0 C3.80267021 2.03714476 5.41491095 3.11099821 6.68359375 7.20703125 C7.13312633 11.59861881 6.61927427 14.12485792 4.04296875 17.765625 C1.77462628 20.27216176 -0.59099543 22.63013088 -3 25 C-3.66 25.99 -4.32 26.98 -5 28 C-4.28972656 28.69867188 -3.57945313 29.39734375 -2.84765625 30.1171875 C-1.92855469 31.02726562 -1.00945312 31.93734375 -0.0625 32.875 C0.85402344 33.77992188 1.77054688 34.68484375 2.71484375 35.6171875 C6.22516196 39.27751931 6.41526301 41.81216724 6.3359375 46.73828125 C6 49 6 49 4 52 C0.43404165 54.37730557 -2.68810512 55.69395777 -7 55 C-12.70412561 51.86396558 -17.14317786 47.29360674 -21.75 42.75 C-22.51699219 42.02425781 -23.28398438 41.29851562 -24.07421875 40.55078125 C-28.78069158 35.91048027 -31.36312144 32.67337967 -32 26 C-30.77303812 21.71165636 -28.64234024 19.27816783 -25.5 16.171875 C-24.613125 15.29015625 -23.72625 14.4084375 -22.8125 13.5 C-21.884375 12.5925 -20.95625 11.685 -20 10.75 C-19.071875 9.82703125 -18.14375 8.9040625 -17.1875 7.953125 C-7.89780749 -1.22854783 -7.89780749 -1.22854783 0 0 Z " fill="#000000" transform="translate(76,191)"/>
<path d="M0 0 C3.12109429 1.86158396 5.4612724 4.42148043 8 7 C9.26576536 8.20051972 10.53424296 9.3981831 11.8046875 10.59375 C13.18373269 11.91516443 14.56132161 13.23810022 15.9375 14.5625 C16.61304932 15.19937744 17.28859863 15.83625488 17.98461914 16.49243164 C20.79466313 19.25668497 22.73916269 21.30052278 24.12890625 25.02734375 C23.75057405 33.75191367 18.04788071 38.53557263 12.125 44.3125 C11.32191406 45.12267578 10.51882813 45.93285156 9.69140625 46.76757812 C2.89030075 53.49585466 2.89030075 53.49585466 -2 55 C-6.22030829 54.92463735 -8.43676127 54.38348169 -11.9375 52 C-14.33442502 48.51356361 -14.8469105 46.50760032 -14.625 42.33984375 C-13.43929327 37.90085416 -10.19065729 35.14283159 -7 32 C-5.65407903 30.34348188 -4.3140151 28.68193932 -3 27 C-3.62648438 26.38511719 -4.25296875 25.77023438 -4.8984375 25.13671875 C-6.12433594 23.92435547 -6.12433594 23.92435547 -7.375 22.6875 C-8.18710937 21.88699219 -8.99921875 21.08648437 -9.8359375 20.26171875 C-13.05501358 16.8973775 -14.33200829 14.73077263 -14.5 10.125 C-14.43594125 7.38648834 -14.35634272 5.59215776 -12.9375 3.234375 C-9.20397896 -0.29623729 -4.86771562 -1.38678705 0 0 Z " fill="#000000" transform="translate(444,191)"/>
</svg>
